<svg id="Layer_1" data-name="Layer 1" xmlns="http://www.w3.org/2000/svg" viewBox="0 0 1080 1080"><defs><style>.cls-1{fill:#6dabaa;}.cls-2{fill:#051d29;}</style></defs><rect class="cls-1" width="1080" height="1080"/><path class="cls-2" d="M339.66,371.3c-5.25-20.46-17.21-35.7-34.57-44.09-15.39-7.42-41.95-4.66-78.95,8.22a461.2,461.2,0,0,0-49.95,20.93,6,6,0,0,0-3.31,5.37V605.47a6,6,0,0,0,3.37,5.4c3.17,1.55,65.95,32,109.75,32,8.75,0,16.76-1.22,23.37-4.13a7.56,7.56,0,0,0,.75-.38c18.27-10,30-29.78,33.91-57.25,5-35.16-4.52-77-22.07-100.38a6,6,0,0,1-.36-6.68C337.38,447.35,348.34,405.14,339.66,371.3Zm-61.54,73.36c-6.84,7.41-24.34,11.61-47.74,11.75a6,6,0,0,1-6-6V394.5a6,6,0,0,1,3.21-5.33c18-9.52,44.17-18.82,53.22-10h0C295.89,393.77,294.55,426.84,278.12,444.66Zm-53.79,65.7a6,6,0,0,1,5.86-6c30.47-.77,47.4,2.49,50.86,6.42,9.87,11.24,14.69,29.43,12.88,48.68-1.29,13.68-5.36,21.46-7.78,23.35-12.17,9.5-42-.32-58.19-7.29a6,6,0,0,1-3.63-5.53Z"/><path class="cls-2" d="M430.77,621.27a6,6,0,0,1-4.77-5.89V288.83a6,6,0,0,0-7.19-5.9l-41.4,8.19a6,6,0,0,0-4.86,5.91V656.78a6,6,0,0,0,4.2,5.73c30.19,9.57,87.91,19.16,139.06,19.16,2.79,0,5.58,0,8.33-.09a6,6,0,0,0,5.89-6V636.65a6,6,0,0,0-6-6A451.34,451.34,0,0,1,430.77,621.27Z"/><path class="cls-2" d="M663.2,557.14c0,37.07-11.26,72.92-42.73,72.92-16.61,0-39.9-25-39.9-77.57v-264a6,6,0,0,0-5.44-6l-40.91-4a6,6,0,0,0-6.6,6c0,36,.08,208,.08,264.89,0,41.51,10.23,76.12,29.58,100.08,16.52,20.43,39.16,32.16,62.13,32.16,22.66,0,45.63-10.78,63-29.56,14.1-15.23,30.91-42.81,30.91-87.64V307.3a6,6,0,0,0-5.08-5.94l-38.08-6.07a6,6,0,0,0-7,5.94Z"/><path class="cls-2" d="M899.38,404.49a6,6,0,0,0,7.74-5.77V361.45a6,6,0,0,0-4-5.68A1375.67,1375.67,0,0,0,755,312.24a6,6,0,0,0-7.37,5.86V648a6,6,0,0,0,7.12,5.92,994.74,994.74,0,0,0,148.35-39.2h0a6,6,0,0,0,4-5.67V570.54a6,6,0,0,0-7.83-5.74c-18.46,5.81-65.23,20.13-92.63,25.14a6,6,0,0,1-7.11-5.93V509.49a6,6,0,0,1,6-6h72.75a6,6,0,0,0,6-6V459.38a6,6,0,0,0-6-6H805.57a6,6,0,0,1-6-6V385a6,6,0,0,1,7.36-5.87C834.39,385.35,881,399,899.38,404.49Z"/><path class="cls-2" d="M217.22,732.23c25.85,0,39.56,9,41.81,27.7a2.18,2.18,0,0,1-.52,1.68,2.15,2.15,0,0,1-1.61.73H239.47a2.14,2.14,0,0,1-2.08-1.63c-1.84-7.4-8.49-10.59-20.17-10.59-16.16,0-21.16,6.25-21.16,16.64s5.1,16.83,21.16,16.83c11.69,0,18.33-3.27,20.17-10.77a2.15,2.15,0,0,1,2.08-1.63h17.44a2.14,2.14,0,0,1,1.6.72,2.11,2.11,0,0,1,.52,1.68c-2.25,18.77-16,27.89-41.81,27.89-29.62,0-42.32-11.83-42.32-34.72S187.6,732.23,217.22,732.23Z"/><path class="cls-2" d="M394.08,788.63a2.14,2.14,0,0,0-2-1.29H360.2a2.15,2.15,0,0,0-2,1.29l-4.64,10.61a2.16,2.16,0,0,1-2,1.28H333a2.13,2.13,0,0,1-1.94-3l29.36-63.05a2.15,2.15,0,0,1,1.94-1.24h27.57a2.15,2.15,0,0,1,1.94,1.24l29.27,63.05a2.14,2.14,0,0,1-1.94,3H400.69a2.13,2.13,0,0,1-2-1.28Zm-10.57-16.48a2.15,2.15,0,0,0,2-3l-7.31-16.68a2.13,2.13,0,0,0-2-1.28,2.16,2.16,0,0,0-2,1.28l-7.37,16.68a2.13,2.13,0,0,0,.16,2,2.15,2.15,0,0,0,1.8,1Z"/><path class="cls-2" d="M586.52,733.19a2.14,2.14,0,0,1,2.14,2.14v63a2.14,2.14,0,0,1-2.14,2.14H561.59a2.17,2.17,0,0,1-1.66-.78l-33.07-40.36a2.14,2.14,0,0,0-3.8,1.35v37.65a2.14,2.14,0,0,1-2.14,2.14H504.05a2.14,2.14,0,0,1-2.15-2.14v-63a2.14,2.14,0,0,1,2.15-2.14h25a2.15,2.15,0,0,1,1.66.79l33,40.17a2.14,2.14,0,0,0,3.8-1.35V735.33a2.14,2.14,0,0,1,2.14-2.14Z"/><path class="cls-2" d="M668.77,766.76c0-22.8,12.7-34.53,42.32-34.53s42.33,11.83,42.33,34.53-12.8,34.72-42.33,34.72S668.77,789.65,668.77,766.76Zm63.48,0c0-10.29-4.61-16.64-21.16-16.64s-21.16,6.25-21.16,16.64,4.81,16.83,21.16,16.83S732.25,777.15,732.25,766.76Z"/><path class="cls-2" d="M857.5,749.64a2.14,2.14,0,0,0-2.14,2.14v5.72a2.14,2.14,0,0,0,2.14,2.14h45.73a2.14,2.14,0,0,1,2.14,2.15v10.14a2.14,2.14,0,0,1-2.14,2.14H857.5a2.14,2.14,0,0,0-2.14,2.14v5.72a2.14,2.14,0,0,0,2.14,2.14h45.73a2.14,2.14,0,0,1,2.14,2.15v12.16a2.14,2.14,0,0,1-2.14,2.14H836.34a2.14,2.14,0,0,1-2.14-2.14v-63a2.14,2.14,0,0,1,2.14-2.14h66.89a2.14,2.14,0,0,1,2.14,2.14V747.5a2.14,2.14,0,0,1-2.14,2.14Z"/></svg>